<?xml version="1.0" standalone="no"?>
<!DOCTYPE svg PUBLIC "-//W3C//DTD SVG 20010904//EN"
 "http://www.w3.org/TR/2001/REC-SVG-20010904/DTD/svg10.dtd">
<svg version="1.0" xmlns="http://www.w3.org/2000/svg"
 width="500" height="500" viewBox="0 0 500 500"
 preserveAspectRatio="xMidYMid meet">

<g transform="translate(0.000000,500.000000) scale(0.100000,-0.100000)"
fill="#000000" stroke="none">
<path d="M2062 3659 c-90 -11 -153 -34 -222 -80 -93 -63 -150 -147 -180 -269
l-16 -65 -54 -8 c-114 -16 -220 -88 -267 -181 -35 -68 -42 -178 -19 -261 32
-107 146 -193 283 -212 24 -3 46 -9 49 -14 2 -4 9 -45 15 -91 7 -63 7 -106 -4
-176 -15 -106 -23 -101 79 -58 93 39 185 56 334 63 150 6 300 -7 407 -37 37
-10 69 -17 71 -15 6 6 -62 52 -114 78 -97 49 -165 61 -334 61 -107 -1 -180 -6
-235 -18 -44 -10 -87 -18 -95 -19 -12 -2 -16 17 -21 98 -3 55 -13 123 -23 151
l-17 51 -58 6 c-84 9 -161 41 -203 84 -47 48 -60 83 -60 160 -1 130 88 226
230 249 38 6 42 4 42 -14 0 -43 41 -149 70 -182 20 -23 26 -26 16 -10 -42 71
-49 215 -17 320 56 178 199 285 401 297 100 6 197 -13 272 -54 111 -60 188
-189 196 -326 l5 -79 66 7 c124 12 248 -23 313 -91 47 -48 62 -91 62 -175 0
-149 -76 -225 -246 -244 -71 -8 -83 -2 -62 31 10 14 19 55 22 97 5 80 -4 81
-33 3 -24 -67 -142 -187 -205 -209 l-45 -15 40 -1 c22 0 63 8 92 18 l52 18 -1
-76 c0 -42 3 -101 7 -131 l8 -55 13 80 c7 44 19 98 26 119 l13 39 85 2 c150 4
238 54 292 163 31 62 33 74 33 167 0 87 -4 107 -26 155 -58 123 -197 200 -359
200 -46 0 -50 2 -56 28 -29 127 -66 204 -135 277 -109 115 -294 170 -487 144z"/>
<path d="M3143 2215 c-39 -17 -87 -81 -153 -207 -28 -54 -53 -98 -55 -98 -2 0
-24 43 -49 95 -50 103 -65 115 -133 115 -47 0 -116 -34 -133 -64 -37 -69 17
-141 72 -97 31 26 18 52 -24 49 -23 -2 -33 2 -36 13 -5 25 39 68 75 75 51 10
56 -12 43 -179 -14 -171 -26 -200 -85 -205 -31 -3 -42 1 -56 20 -17 22 -18 22
-25 4 -10 -25 20 -46 65 -46 89 1 119 50 130 208 l7 107 52 -102 c29 -57 58
-103 66 -103 7 0 34 43 60 96 26 53 48 95 51 93 2 -3 11 -65 20 -138 8 -74 20
-140 26 -148 15 -18 80 -17 105 2 16 12 16 14 2 9 -27 -9 -34 21 -53 228 -14
157 -15 191 -3 214 19 39 43 52 68 36 25 -16 30 -15 30 3 0 25 -32 35 -67 20z"/>
<path d="M2243 2125 c-18 -8 -33 -20 -33 -27 0 -9 3 -9 12 0 14 14 62 16 87 2
22 -11 50 -53 61 -89 7 -27 7 -27 -41 -27 -40 1 -53 -4 -78 -29 -53 -49 -63
-134 -25 -207 21 -40 68 -61 121 -55 52 6 87 35 104 86 16 47 15 177 -1 227
-34 107 -121 157 -207 119z m127 -184 c14 -26 13 -164 -1 -195 -15 -32 -39
-41 -58 -21 -21 21 -23 194 -2 218 18 23 48 21 61 -2z"/>
<path d="M1367 2109 c-85 -20 -117 -50 -117 -111 0 -41 15 -58 50 -58 30 0 50
16 50 41 0 24 -18 33 -36 18 -12 -10 -18 -9 -31 4 -15 14 -15 18 1 42 16 24
70 55 96 55 6 0 10 -36 10 -95 0 -88 -1 -95 -20 -95 -11 0 -20 -4 -20 -10 0
-5 9 -10 20 -10 18 0 20 -7 20 -89 0 -98 9 -115 57 -109 l28 3 3 98 3 97 59 0
c33 0 60 4 60 10 0 6 -27 10 -60 10 l-60 0 0 96 0 96 58 -4 c31 -3 65 -9 76
-13 14 -6 17 -4 14 11 -3 17 -14 19 -113 21 -61 1 -127 -3 -148 -8z"/>
<path d="M3768 2040 c-19 -34 -77 -64 -103 -54 -11 4 -28 -5 -49 -25 l-33 -32
-7 25 c-8 32 -37 41 -83 25 -32 -10 -35 -13 -18 -19 18 -6 20 -19 25 -136 l5
-129 35 0 35 0 3 107 3 108 31 16 c24 12 36 14 49 6 20 -13 29 -6 29 20 0 10
7 18 15 18 13 0 15 -20 15 -123 0 -107 2 -126 18 -140 33 -30 94 -20 114 17
10 19 10 20 -5 7 -14 -11 -20 -11 -32 -1 -12 10 -15 37 -15 126 l0 113 43 3
c38 3 42 6 45 31 2 19 -1 27 -12 27 -19 0 -21 -11 -5 -27 9 -9 5 -14 -15 -19
-42 -10 -56 1 -56 46 0 48 -9 51 -32 10z"/>
<path d="M1703 1975 c-53 -23 -75 -68 -71 -149 4 -64 6 -70 41 -102 29 -27 45
-34 78 -34 55 0 95 26 119 75 25 51 25 98 1 151 -30 65 -99 89 -168 59z m87
-34 c5 -11 10 -57 10 -103 0 -87 -15 -128 -46 -128 -37 0 -59 145 -33 219 13
36 52 43 69 12z"/>
<path d="M1993 1975 c-53 -23 -75 -68 -71 -149 4 -64 6 -70 41 -102 65 -60
157 -42 196 39 26 53 26 99 2 153 -30 65 -99 89 -168 59z m87 -34 c5 -11 10
-57 10 -103 0 -87 -15 -128 -46 -128 -37 0 -59 145 -33 219 13 36 52 43 69 12z"/>
<path d="M3253 1975 c-51 -22 -56 -85 -7 -85 17 0 24 6 24 20 0 11 -4 20 -10
20 -22 0 -8 30 17 36 37 10 58 -7 58 -47 0 -31 -5 -36 -50 -57 -71 -33 -95
-59 -95 -99 0 -66 71 -95 129 -54 27 19 27 19 39 0 16 -25 64 -25 87 1 17 18
17 20 2 14 -15 -5 -17 3 -17 83 0 114 -12 151 -56 169 -42 17 -80 17 -121 -1z
m85 -160 c4 -49 -4 -81 -23 -88 -42 -17 -62 76 -24 114 28 28 43 20 47 -26z"/>
<path d="M1799 1478 c-4 -61 -2 -82 9 -86 7 -2 12 7 12 22 0 23 4 26 35 26 31
0 35 -3 35 -25 0 -14 5 -25 10 -25 6 0 10 25 10 55 0 30 -4 55 -10 55 -5 0
-10 -9 -10 -20 0 -16 -7 -20 -35 -20 -28 0 -35 4 -35 20 0 28 -20 25 -21 -2z"/>
<path d="M1950 1445 l0 -55 45 0 c25 0 45 5 45 10 0 6 -16 10 -35 10 -47 0
-50 29 -2 31 l32 1 -30 7 c-16 3 -31 14 -33 23 -2 13 6 18 35 21 36 3 35 4 -9
5 l-48 2 0 -55z"/>
<path d="M2101 1449 c-21 -48 -21 -84 0 -46 13 22 58 22 75 0 23 -32 24 -7 2
45 -29 68 -49 68 -77 1z m49 22 c0 -5 3 -16 6 -25 5 -12 0 -16 -20 -16 -24 0
-25 2 -14 25 11 24 28 34 28 16z"/>
<path d="M2240 1455 c0 -25 -1 -48 -2 -52 -2 -5 16 -9 40 -11 25 -2 42 1 42 7
0 6 -13 11 -30 11 -29 0 -30 2 -30 45 0 25 -4 45 -10 45 -5 0 -10 -20 -10 -45z"/>
<path d="M2368 1490 c18 -8 22 -17 22 -55 0 -25 5 -45 10 -45 6 0 10 20 10 45
0 38 4 47 23 55 17 7 10 9 -33 9 -43 0 -50 -2 -32 -9z"/>
<path d="M2490 1445 c0 -30 5 -55 10 -55 6 0 10 11 10 25 0 22 4 25 35 25 31
0 35 -3 35 -25 0 -14 5 -25 10 -25 6 0 10 25 10 55 0 30 -4 55 -10 55 -5 0
-10 -9 -10 -20 0 -16 -7 -20 -35 -20 -28 0 -35 4 -35 20 0 11 -4 20 -10 20 -5
0 -10 -25 -10 -55z"/>
<path d="M2660 1468 c11 -18 20 -43 20 -56 0 -31 24 -23 29 9 1 13 12 36 23
51 15 21 16 28 5 28 -7 0 -19 -12 -26 -27 l-13 -28 -20 28 c-28 38 -42 34 -18
-5z"/>
<path d="M2848 1493 c-9 -21 -2 -97 10 -101 7 -2 12 6 12 22 0 20 5 25 33 29
l32 4 -32 1 c-25 2 -33 7 -33 21 0 15 8 21 33 24 28 3 27 4 -10 5 -23 1 -43
-1 -45 -5z"/>
<path d="M2988 1489 c-26 -15 -23 -64 4 -83 65 -46 142 20 95 82 -11 14 -75
16 -99 1z m82 -13 c6 -8 10 -25 8 -38 -6 -43 -88 -33 -88 11 0 38 55 56 80 27z"/>
<path d="M3157 1482 c-51 -56 36 -121 101 -76 27 18 29 55 4 77 -25 23 -85 22
-105 -1z m87 -8 c19 -19 20 -36 4 -52 -18 -18 -66 -15 -76 6 -24 46 35 84 72
46z"/>
<path d="M3320 1445 c0 -47 3 -55 19 -55 80 0 118 37 87 85 -14 21 -24 25 -61
25 l-45 0 0 -55z m76 37 c35 -23 17 -72 -26 -72 -28 0 -30 2 -30 40 0 35 3 40
23 40 12 0 27 -4 33 -8z"/>
</g>
</svg>
